/home/xinjie/Newton_Connection/Newton/phystwin_bridge/tools/core/newton_import_ir.py:1209: UserWarning: tabletop_table_box: PhysTwin ground collide_elas is present in IR, but native Newton SemiImplicit has no direct 1-to-1 restitution field for particle-vs-shape contacts. Ground bounce will therefore use native Newton ground ke/kd/kf defaults unless --ground-restitution-mode=approximate-native is selected.
  warnings.warn(message)
ffmpeg version 6.1.1-3ubuntu5+esm7 Copyright (c) 2000-2023 the FFmpeg developers
  built with gcc 13 (Ubuntu 13.3.0-6ubuntu2~24.04)
  configuration: --prefix=/usr --extra-version=3ubuntu5+esm7 --toolchain=hardened --libdir=/usr/lib/x86_64-linux-gnu --incdir=/usr/include/x86_64-linux-gnu --arch=amd64 --enable-gpl --disable-stripping --disable-omx --enable-gnutls --enable-libaom --enable-libass --enable-libbs2b --enable-libcaca --enable-libcdio --enable-libcodec2 --enable-libdav1d --enable-libflite --enable-libfontconfig --enable-libfreetype --enable-libfribidi --enable-libglslang --enable-libgme --enable-libgsm --enable-libharfbuzz --enable-libmp3lame --enable-libmysofa --enable-libopenjpeg --enable-libopenmpt --enable-libopus --enable-librubberband --enable-libshine --enable-libsnappy --enable-libsoxr --enable-libspeex --enable-libtheora --enable-libtwolame --enable-libvidstab --enable-libvorbis --enable-libvpx --enable-libwebp --enable-libx265 --enable-libxml2 --enable-libxvid --enable-libzimg --enable-openal --enable-opencl --enable-opengl --disable-sndio --enable-libvpl --disable-libmfx --enable-libdc1394 --enable-libdrm --enable-libiec61883 --enable-chromaprint --enable-frei0r --enable-ladspa --enable-libbluray --enable-libjack --enable-libpulse --enable-librabbitmq --enable-librist --enable-libsrt --enable-libssh --enable-libsvtav1 --enable-libx264 --enable-libzmq --enable-libzvbi --enable-lv2 --enable-sdl2 --enable-libplacebo --enable-librav1e --enable-pocketsphinx --enable-librsvg --enable-libjxl --enable-shared
  libavutil      58. 29.100 / 58. 29.100
  libavcodec     60. 31.102 / 60. 31.102
  libavformat    60. 16.100 / 60. 16.100
  libavdevice    60.  3.100 / 60.  3.100
  libavfilter     9. 12.100 /  9. 12.100
  libswscale      7.  5.100 /  7.  5.100
  libswresample   4. 12.100 /  4. 12.100
  libpostproc    57.  3.100 / 57.  3.100
Input #0, rawvideo, from 'fd:':
  Duration: N/A, start: 0.000000, bitrate: 663552 kb/s
  Stream #0:0: Video: rawvideo (RGB[24] / 0x18424752), rgb24, 1280x720, 663552 kb/s, 30 tbr, 30 tbn
Stream mapping:
  Stream #0:0 -> #0:0 (rawvideo (native) -> h264 (libx264))
[libx264 @ 0x61ea91dbf480] using cpu capabilities: MMX2 SSE2Fast SSSE3 SSE4.2 AVX FMA3 BMI2 AVX2
[libx264 @ 0x61ea91dbf480] profile High, level 3.1, 4:2:0, 8-bit
[libx264 @ 0x61ea91dbf480] 264 - core 164 r3108 31e19f9 - H.264/MPEG-4 AVC codec - Copyleft 2003-2023 - http://www.videolan.org/x264.html - options: cabac=1 ref=3 deblock=1:0:0 analyse=0x3:0x113 me=hex subme=7 psy=1 psy_rd=1.00:0.00 mixed_ref=1 me_range=16 chroma_me=1 trellis=1 8x8dct=1 cqm=0 deadzone=21,11 fast_pskip=1 chroma_qp_offset=-2 threads=22 lookahead_threads=3 sliced_threads=0 nr=0 decimate=1 interlaced=0 bluray_compat=0 constrained_intra=0 bframes=3 b_pyramid=2 b_adapt=1 b_bias=0 direct=1 weightb=1 open_gop=0 weightp=2 keyint=250 keyint_min=25 scenecut=40 intra_refresh=0 rc_lookahead=40 rc=crf mbtree=1 crf=18.0 qcomp=0.60 qpmin=0 qpmax=69 qpstep=4 ip_ratio=1.40 aq=1:1.00
Output #0, mp4, to '/home/xinjie/Newton_Connection/Newton/phystwin_bridge/results/robot_rope_franka/candidates/20260401_203416_remotefix_truthcam_c12/presentation/work/robot_rope_tabletop_hero.mp4':
  Metadata:
    encoder         : Lavf60.16.100
  Stream #0:0: Video: h264 (avc1 / 0x31637661), yuv420p(tv, progressive), 1280x720, q=2-31, 30 fps, 15360 tbn
    Metadata:
      encoder         : Lavc60.31.102 libx264
    Side data:
      cpb: bitrate max/min/avg: 0/0/0 buffer size: 0 vbv_delay: N/A
frame=    0 fps=0.0 q=0.0 size=       0kB time=N/A bitrate=N/A speed=N/A    frame=   32 fps=0.0 q=24.0 size=       0kB time=00:00:01.00 bitrate=   0.4kbits/s speed=1.98x    [out#0/mp4 @ 0x61ea91dbdc80] video:664kB audio:0kB subtitle:0kB other streams:0kB global headers:0kB muxing overhead: 0.450897%
frame=  186 fps=0.0 q=-1.0 Lsize=     667kB time=00:00:06.10 bitrate= 896.4kbits/s speed=6.45x    
[libx264 @ 0x61ea91dbf480] frame I:1     Avg QP: 9.13  size: 86689
[libx264 @ 0x61ea91dbf480] frame P:48    Avg QP:16.70  size:  6876
[libx264 @ 0x61ea91dbf480] frame B:137   Avg QP:23.35  size:  1920
[libx264 @ 0x61ea91dbf480] consecutive B-frames:  0.5%  2.2%  4.8% 92.5%
[libx264 @ 0x61ea91dbf480] mb I  I16..4: 46.4% 11.2% 42.4%
[libx264 @ 0x61ea91dbf480] mb P  I16..4:  0.2%  0.4%  0.2%  P16..4:  3.9%  2.9%  2.4%  0.0%  0.0%    skip:90.0%
[libx264 @ 0x61ea91dbf480] mb B  I16..4:  0.0%  0.0%  0.0%  B16..8:  3.6%  1.5%  0.6%  direct: 0.6%  skip:93.7%  L0:35.2% L1:40.8% BI:24.0%
[libx264 @ 0x61ea91dbf480] 8x8 transform intra:23.8% inter:19.4%
[libx264 @ 0x61ea91dbf480] coded y,uvDC,uvAC intra: 35.9% 43.2% 37.8% inter: 2.1% 0.7% 0.3%
[libx264 @ 0x61ea91dbf480] i16 v,h,dc,p: 77% 13%  7%  3%
[libx264 @ 0x61ea91dbf480] i8 v,h,dc,ddl,ddr,vr,hd,vl,hu: 17% 16% 36%  1% 11%  7%  4%  2%  5%
[libx264 @ 0x61ea91dbf480] i4 v,h,dc,ddl,ddr,vr,hd,vl,hu: 20% 31% 18%  2%  7%  5%  8%  1%  8%
[libx264 @ 0x61ea91dbf480] i8c dc,h,v,p: 66% 20% 11%  3%
[libx264 @ 0x61ea91dbf480] Weighted P-Frames: Y:0.0% UV:0.0%
[libx264 @ 0x61ea91dbf480] ref P L0: 64.9% 12.9% 16.7%  5.5%
[libx264 @ 0x61ea91dbf480] ref B L0: 84.9% 12.6%  2.5%
[libx264 @ 0x61ea91dbf480] ref B L1: 93.8%  6.2%
[libx264 @ 0x61ea91dbf480] kb/s:877.07
/home/xinjie/Newton_Connection/Newton/phystwin_bridge/tools/core/newton_import_ir.py:1209: UserWarning: tabletop_table_box: PhysTwin ground collide_elas is present in IR, but native Newton SemiImplicit has no direct 1-to-1 restitution field for particle-vs-shape contacts. Ground bounce will therefore use native Newton ground ke/kd/kf defaults unless --ground-restitution-mode=approximate-native is selected.
  warnings.warn(message)
ffmpeg version 6.1.1-3ubuntu5+esm7 Copyright (c) 2000-2023 the FFmpeg developers
  built with gcc 13 (Ubuntu 13.3.0-6ubuntu2~24.04)
  configuration: --prefix=/usr --extra-version=3ubuntu5+esm7 --toolchain=hardened --libdir=/usr/lib/x86_64-linux-gnu --incdir=/usr/include/x86_64-linux-gnu --arch=amd64 --enable-gpl --disable-stripping --disable-omx --enable-gnutls --enable-libaom --enable-libass --enable-libbs2b --enable-libcaca --enable-libcdio --enable-libcodec2 --enable-libdav1d --enable-libflite --enable-libfontconfig --enable-libfreetype --enable-libfribidi --enable-libglslang --enable-libgme --enable-libgsm --enable-libharfbuzz --enable-libmp3lame --enable-libmysofa --enable-libopenjpeg --enable-libopenmpt --enable-libopus --enable-librubberband --enable-libshine --enable-libsnappy --enable-libsoxr --enable-libspeex --enable-libtheora --enable-libtwolame --enable-libvidstab --enable-libvorbis --enable-libvpx --enable-libwebp --enable-libx265 --enable-libxml2 --enable-libxvid --enable-libzimg --enable-openal --enable-opencl --enable-opengl --disable-sndio --enable-libvpl --disable-libmfx --enable-libdc1394 --enable-libdrm --enable-libiec61883 --enable-chromaprint --enable-frei0r --enable-ladspa --enable-libbluray --enable-libjack --enable-libpulse --enable-librabbitmq --enable-librist --enable-libsrt --enable-libssh --enable-libsvtav1 --enable-libx264 --enable-libzmq --enable-libzvbi --enable-lv2 --enable-sdl2 --enable-libplacebo --enable-librav1e --enable-pocketsphinx --enable-librsvg --enable-libjxl --enable-shared
  libavutil      58. 29.100 / 58. 29.100
  libavcodec     60. 31.102 / 60. 31.102
  libavformat    60. 16.100 / 60. 16.100
  libavdevice    60.  3.100 / 60.  3.100
  libavfilter     9. 12.100 /  9. 12.100
  libswscale      7.  5.100 /  7.  5.100
  libswresample   4. 12.100 /  4. 12.100
  libpostproc    57.  3.100 / 57.  3.100
Input #0, rawvideo, from 'fd:':
  Duration: N/A, start: 0.000000, bitrate: 663552 kb/s
  Stream #0:0: Video: rawvideo (RGB[24] / 0x18424752), rgb24, 1280x720, 663552 kb/s, 30 tbr, 30 tbn
Stream mapping:
  Stream #0:0 -> #0:0 (rawvideo (native) -> h264 (libx264))
[libx264 @ 0x5ff96bd58480] using cpu capabilities: MMX2 SSE2Fast SSSE3 SSE4.2 AVX FMA3 BMI2 AVX2
[libx264 @ 0x5ff96bd58480] profile High, level 3.1, 4:2:0, 8-bit
[libx264 @ 0x5ff96bd58480] 264 - core 164 r3108 31e19f9 - H.264/MPEG-4 AVC codec - Copyleft 2003-2023 - http://www.videolan.org/x264.html - options: cabac=1 ref=3 deblock=1:0:0 analyse=0x3:0x113 me=hex subme=7 psy=1 psy_rd=1.00:0.00 mixed_ref=1 me_range=16 chroma_me=1 trellis=1 8x8dct=1 cqm=0 deadzone=21,11 fast_pskip=1 chroma_qp_offset=-2 threads=22 lookahead_threads=3 sliced_threads=0 nr=0 decimate=1 interlaced=0 bluray_compat=0 constrained_intra=0 bframes=3 b_pyramid=2 b_adapt=1 b_bias=0 direct=1 weightb=1 open_gop=0 weightp=2 keyint=250 keyint_min=25 scenecut=40 intra_refresh=0 rc_lookahead=40 rc=crf mbtree=1 crf=18.0 qcomp=0.60 qpmin=0 qpmax=69 qpstep=4 ip_ratio=1.40 aq=1:1.00
Output #0, mp4, to '/home/xinjie/Newton_Connection/Newton/phystwin_bridge/results/robot_rope_franka/candidates/20260401_203416_remotefix_truthcam_c12/debug/work/robot_rope_tabletop_hero_debug.mp4':
  Metadata:
    encoder         : Lavf60.16.100
  Stream #0:0: Video: h264 (avc1 / 0x31637661), yuv420p(tv, progressive), 1280x720, q=2-31, 30 fps, 15360 tbn
    Metadata:
      encoder         : Lavc60.31.102 libx264
    Side data:
      cpb: bitrate max/min/avg: 0/0/0 buffer size: 0 vbv_delay: N/A
frame=    0 fps=0.0 q=0.0 size=       0kB time=N/A bitrate=N/A speed=N/A    frame=    0 fps=0.0 q=0.0 size=       0kB time=N/A bitrate=N/A speed=N/A    frame=    0 fps=0.0 q=0.0 size=       0kB time=N/A bitrate=N/A speed=N/A    frame=    0 fps=0.0 q=0.0 size=       0kB time=N/A bitrate=N/A speed=N/A    frame=    0 fps=0.0 q=0.0 size=       0kB time=N/A bitrate=N/A speed=N/A    frame=    0 fps=0.0 q=0.0 size=       0kB time=N/A bitrate=N/A speed=N/A    frame=    0 fps=0.0 q=0.0 size=       0kB time=N/A bitrate=N/A speed=N/A    frame=    0 fps=0.0 q=0.0 size=       0kB time=N/A bitrate=N/A speed=N/A    frame=    0 fps=0.0 q=0.0 size=       0kB time=N/A bitrate=N/A speed=N/A    frame=    0 fps=0.0 q=0.0 size=       0kB time=N/A bitrate=N/A speed=N/A    frame=    5 fps=0.9 q=24.0 size=       0kB time=00:00:00.10 bitrate=   3.8kbits/s speed=0.018x    frame=   12 fps=2.0 q=24.0 size=       0kB time=00:00:00.33 bitrate=   1.2kbits/s speed=0.0546x    frame=   19 fps=2.9 q=24.0 size=       0kB time=00:00:00.56 bitrate=   0.7kbits/s speed=0.0852x    frame=   26 fps=3.6 q=24.0 size=       0kB time=00:00:00.80 bitrate=   0.5kbits/s speed=0.111x    frame=   33 fps=4.3 q=24.0 size=       0kB time=00:00:01.03 bitrate=   0.4kbits/s speed=0.133x    frame=   40 fps=4.8 q=24.0 size=       0kB time=00:00:01.26 bitrate=   0.3kbits/s speed=0.152x    frame=   47 fps=5.3 q=24.0 size=       0kB time=00:00:01.50 bitrate=   0.3kbits/s speed=0.169x    frame=   54 fps=5.7 q=24.0 size=       0kB time=00:00:01.73 bitrate=   0.2kbits/s speed=0.184x    frame=   61 fps=6.1 q=24.0 size=       0kB time=00:00:01.96 bitrate=   0.2kbits/s speed=0.197x    frame=   68 fps=6.4 q=24.0 size=       0kB time=00:00:02.20 bitrate=   0.2kbits/s speed=0.208x    frame=   74 fps=6.7 q=24.0 size=       0kB time=00:00:02.40 bitrate=   0.2kbits/s speed=0.217x    frame=   80 fps=6.9 q=24.0 size=       0kB time=00:00:02.60 bitrate=   0.1kbits/s speed=0.224x    frame=   86 fps=7.1 q=24.0 size=     256kB time=00:00:02.80 bitrate= 749.1kbits/s speed=0.231x    frame=   92 fps=7.3 q=24.0 size=     256kB time=00:00:03.00 bitrate= 699.2kbits/s speed=0.238x    frame=   99 fps=7.5 q=24.0 size=     256kB time=00:00:03.23 bitrate= 648.7kbits/s speed=0.245x    frame=  106 fps=7.7 q=24.0 size=     256kB time=00:00:03.46 bitrate= 605.1kbits/s speed=0.253x    frame=  113 fps=7.9 q=24.0 size=     256kB time=00:00:03.70 bitrate= 566.9kbits/s speed=0.259x    frame=  120 fps=8.1 q=24.0 size=     256kB time=00:00:03.90 bitrate= 537.8kbits/s speed=0.263x    [out#0/mp4 @ 0x5ff96bd56c80] video:661kB audio:0kB subtitle:0kB other streams:0kB global headers:0kB muxing overhead: 0.453347%
frame=  186 fps= 12 q=-1.0 Lsize=     664kB time=00:00:06.10 bitrate= 891.6kbits/s speed=0.41x    
[libx264 @ 0x5ff96bd58480] frame I:1     Avg QP:10.51  size: 49294
[libx264 @ 0x5ff96bd58480] frame P:51    Avg QP:17.93  size:  7570
[libx264 @ 0x5ff96bd58480] frame B:134   Avg QP:25.32  size:  1796
[libx264 @ 0x5ff96bd58480] consecutive B-frames:  1.6%  5.4%  4.8% 88.2%
[libx264 @ 0x5ff96bd58480] mb I  I16..4: 51.8% 26.7% 21.5%
[libx264 @ 0x5ff96bd58480] mb P  I16..4:  0.2%  0.2%  0.3%  P16..4:  4.0%  2.9%  2.7%  0.0%  0.0%    skip:89.7%
[libx264 @ 0x5ff96bd58480] mb B  I16..4:  0.0%  0.0%  0.0%  B16..8:  3.5%  1.3%  0.6%  direct: 0.6%  skip:94.0%  L0:35.0% L1:43.2% BI:21.8%
[libx264 @ 0x5ff96bd58480] 8x8 transform intra:28.2% inter:21.5%
[libx264 @ 0x5ff96bd58480] coded y,uvDC,uvAC intra: 25.7% 24.0% 14.8% inter: 2.2% 0.8% 0.4%
[libx264 @ 0x5ff96bd58480] i16 v,h,dc,p: 80% 16%  3%  2%
[libx264 @ 0x5ff96bd58480] i8 v,h,dc,ddl,ddr,vr,hd,vl,hu: 40% 10% 41%  1%  2%  1%  2%  1%  3%
[libx264 @ 0x5ff96bd58480] i4 v,h,dc,ddl,ddr,vr,hd,vl,hu: 27% 27% 16%  3%  6%  6%  6%  4%  6%
[libx264 @ 0x5ff96bd58480] i8c dc,h,v,p: 70% 21%  7%  1%
[libx264 @ 0x5ff96bd58480] Weighted P-Frames: Y:0.0% UV:0.0%
[libx264 @ 0x5ff96bd58480] ref P L0: 67.4% 15.4% 12.9%  4.2%
[libx264 @ 0x5ff96bd58480] ref B L0: 85.7% 11.9%  2.3%
[libx264 @ 0x5ff96bd58480] ref B L1: 95.3%  4.7%
[libx264 @ 0x5ff96bd58480] kb/s:872.33
/home/xinjie/Newton_Connection/Newton/phystwin_bridge/tools/core/newton_import_ir.py:1209: UserWarning: tabletop_table_box: PhysTwin ground collide_elas is present in IR, but native Newton SemiImplicit has no direct 1-to-1 restitution field for particle-vs-shape contacts. Ground bounce will therefore use native Newton ground ke/kd/kf defaults unless --ground-restitution-mode=approximate-native is selected.
  warnings.warn(message)
ffmpeg version 6.1.1-3ubuntu5+esm7 Copyright (c) 2000-2023 the FFmpeg developers
  built with gcc 13 (Ubuntu 13.3.0-6ubuntu2~24.04)
  configuration: --prefix=/usr --extra-version=3ubuntu5+esm7 --toolchain=hardened --libdir=/usr/lib/x86_64-linux-gnu --incdir=/usr/include/x86_64-linux-gnu --arch=amd64 --enable-gpl --disable-stripping --disable-omx --enable-gnutls --enable-libaom --enable-libass --enable-libbs2b --enable-libcaca --enable-libcdio --enable-libcodec2 --enable-libdav1d --enable-libflite --enable-libfontconfig --enable-libfreetype --enable-libfribidi --enable-libglslang --enable-libgme --enable-libgsm --enable-libharfbuzz --enable-libmp3lame --enable-libmysofa --enable-libopenjpeg --enable-libopenmpt --enable-libopus --enable-librubberband --enable-libshine --enable-libsnappy --enable-libsoxr --enable-libspeex --enable-libtheora --enable-libtwolame --enable-libvidstab --enable-libvorbis --enable-libvpx --enable-libwebp --enable-libx265 --enable-libxml2 --enable-libxvid --enable-libzimg --enable-openal --enable-opencl --enable-opengl --disable-sndio --enable-libvpl --disable-libmfx --enable-libdc1394 --enable-libdrm --enable-libiec61883 --enable-chromaprint --enable-frei0r --enable-ladspa --enable-libbluray --enable-libjack --enable-libpulse --enable-librabbitmq --enable-librist --enable-libsrt --enable-libssh --enable-libsvtav1 --enable-libx264 --enable-libzmq --enable-libzvbi --enable-lv2 --enable-sdl2 --enable-libplacebo --enable-librav1e --enable-pocketsphinx --enable-librsvg --enable-libjxl --enable-shared
  libavutil      58. 29.100 / 58. 29.100
  libavcodec     60. 31.102 / 60. 31.102
  libavformat    60. 16.100 / 60. 16.100
  libavdevice    60.  3.100 / 60.  3.100
  libavfilter     9. 12.100 /  9. 12.100
  libswscale      7.  5.100 /  7.  5.100
  libswresample   4. 12.100 /  4. 12.100
  libpostproc    57.  3.100 / 57.  3.100
Input #0, rawvideo, from 'fd:':
  Duration: N/A, start: 0.000000, bitrate: 663552 kb/s
  Stream #0:0: Video: rawvideo (RGB[24] / 0x18424752), rgb24, 1280x720, 663552 kb/s, 30 tbr, 30 tbn
Stream mapping:
  Stream #0:0 -> #0:0 (rawvideo (native) -> h264 (libx264))
[libx264 @ 0x5b394d5ce580] using cpu capabilities: MMX2 SSE2Fast SSSE3 SSE4.2 AVX FMA3 BMI2 AVX2
[libx264 @ 0x5b394d5ce580] profile High, level 3.1, 4:2:0, 8-bit
[libx264 @ 0x5b394d5ce580] 264 - core 164 r3108 31e19f9 - H.264/MPEG-4 AVC codec - Copyleft 2003-2023 - http://www.videolan.org/x264.html - options: cabac=1 ref=3 deblock=1:0:0 analyse=0x3:0x113 me=hex subme=7 psy=1 psy_rd=1.00:0.00 mixed_ref=1 me_range=16 chroma_me=1 trellis=1 8x8dct=1 cqm=0 deadzone=21,11 fast_pskip=1 chroma_qp_offset=-2 threads=22 lookahead_threads=3 sliced_threads=0 nr=0 decimate=1 interlaced=0 bluray_compat=0 constrained_intra=0 bframes=3 b_pyramid=2 b_adapt=1 b_bias=0 direct=1 weightb=1 open_gop=0 weightp=2 keyint=250 keyint_min=25 scenecut=40 intra_refresh=0 rc_lookahead=40 rc=crf mbtree=1 crf=18.0 qcomp=0.60 qpmin=0 qpmax=69 qpstep=4 ip_ratio=1.40 aq=1:1.00
Output #0, mp4, to '/home/xinjie/Newton_Connection/Newton/phystwin_bridge/results/robot_rope_franka/candidates/20260401_203416_remotefix_truthcam_c12/validation/work/robot_rope_tabletop_hero_validation.mp4':
  Metadata:
    encoder         : Lavf60.16.100
  Stream #0:0: Video: h264 (avc1 / 0x31637661), yuv420p(tv, progressive), 1280x720, q=2-31, 30 fps, 15360 tbn
    Metadata:
      encoder         : Lavc60.31.102 libx264
    Side data:
      cpb: bitrate max/min/avg: 0/0/0 buffer size: 0 vbv_delay: N/A
frame=    0 fps=0.0 q=0.0 size=       0kB time=N/A bitrate=N/A speed=N/A    frame=   42 fps=0.0 q=24.0 size=       0kB time=00:00:01.33 bitrate=   0.3kbits/s speed=2.65x    [out#0/mp4 @ 0x5b394d5ccc80] video:601kB audio:0kB subtitle:0kB other streams:0kB global headers:0kB muxing overhead: 0.498663%
frame=  186 fps=0.0 q=-1.0 Lsize=     604kB time=00:00:06.10 bitrate= 810.9kbits/s speed= 6.9x    
[libx264 @ 0x5b394d5ce580] frame I:1     Avg QP:10.77  size: 82707
[libx264 @ 0x5b394d5ce580] frame P:48    Avg QP:16.97  size:  5910
[libx264 @ 0x5b394d5ce580] frame B:137   Avg QP:23.04  size:  1812
[libx264 @ 0x5b394d5ce580] consecutive B-frames:  0.5%  2.2%  4.8% 92.5%
[libx264 @ 0x5b394d5ce580] mb I  I16..4: 31.2% 26.9% 41.9%
[libx264 @ 0x5b394d5ce580] mb P  I16..4:  0.1%  0.3%  0.2%  P16..4:  3.4%  2.3%  1.9%  0.0%  0.0%    skip:91.9%
[libx264 @ 0x5b394d5ce580] mb B  I16..4:  0.0%  0.1%  0.0%  B16..8:  3.0%  1.1%  0.5%  direct: 0.5%  skip:94.7%  L0:35.7% L1:39.2% BI:25.1%
[libx264 @ 0x5b394d5ce580] 8x8 transform intra:39.6% inter:18.9%
[libx264 @ 0x5b394d5ce580] coded y,uvDC,uvAC intra: 30.0% 40.0% 35.8% inter: 1.9% 0.5% 0.2%
[libx264 @ 0x5b394d5ce580] i16 v,h,dc,p: 77%  9% 11%  3%
[libx264 @ 0x5b394d5ce580] i8 v,h,dc,ddl,ddr,vr,hd,vl,hu: 29%  7% 52%  0%  3%  4%  2%  0%  2%
[libx264 @ 0x5b394d5ce580] i4 v,h,dc,ddl,ddr,vr,hd,vl,hu: 26% 31% 15%  1%  6%  5%  7%  1%  8%
[libx264 @ 0x5b394d5ce580] i8c dc,h,v,p: 69% 16% 12%  2%
[libx264 @ 0x5b394d5ce580] Weighted P-Frames: Y:0.0% UV:0.0%
[libx264 @ 0x5b394d5ce580] ref P L0: 66.2% 12.8% 16.2%  4.8%
[libx264 @ 0x5b394d5ce580] ref B L0: 86.1% 11.7%  2.2%
[libx264 @ 0x5b394d5ce580] ref B L1: 95.3%  4.7%
[libx264 @ 0x5b394d5ce580] kb/s:792.97
